<svg xmlns="http://www.w3.org/2000/svg" viewBox="0 0 100 100" width="512" height="512">
  <title>Spindle — la Valise</title>
  <!-- The Spindle.fm mark, final ("B", disc r 14.5, chosen 2026-07-15).
       Canonical source: src/components/ui/Valise.tsx. Colours:
       cocoa #3A2416 · tangerine #F26522 · gold #F4A81D · cream #F6EBD2 -->
  <path d="M38 30 q0 -12 12 -12 q12 0 12 12" fill="none" stroke="#3A2416" stroke-width="4.5"/>
  <rect x="14" y="30" width="72" height="52" rx="9" fill="#F26522"/>
  <path d="M14 44 h72 v-5 a9 9 0 0 0 -9 -9 h-54 a9 9 0 0 0 -9 9 Z" fill="#F4A81D"/>
  <rect x="26" y="40" width="7" height="8" rx="1.6" fill="#3A2416"/>
  <rect x="67" y="40" width="7" height="8" rx="1.6" fill="#3A2416"/>
  <circle cx="50" cy="62.5" r="17" fill="#F6EBD2"/>
  <circle cx="50" cy="62.5" r="14.5" fill="#3A2416"/>
  <path d="M50 53 A9.5 9.5 0 0 1 59.5 62.5" fill="none" stroke="#5A432E" stroke-width="2.2" stroke-linecap="round"/>
  <circle cx="50" cy="62.5" r="5.4" fill="#F4A81D"/>
  <circle cx="50" cy="62.5" r="1.8" fill="#F6EBD2"/>
  <rect x="24" y="82" width="10" height="4.5" rx="2" fill="#3A2416"/>
  <rect x="66" y="82" width="10" height="4.5" rx="2" fill="#3A2416"/>
</svg>
